<mxfile host="app.diagrams.net" agent="Mozilla/5.0 (Windows NT 10.0; Win64; x64) AppleWebKit/537.36 (KHTML, like Gecko) Chrome/131.0.0.0 Safari/537.36" version="26.0.2">
  <diagram name="Page-1" id="XTMSTtUYdP-3Gh9Ys5hL">
    <mxGraphModel dx="955" dy="506" grid="1" gridSize="10" guides="1" tooltips="1" connect="1" arrows="1" fold="1" page="1" pageScale="1" pageWidth="1169" pageHeight="827" math="0" shadow="0" adaptiveColors="simple">
      <root>
        <mxCell id="0" />
        <mxCell id="1" parent="0" />
        <mxCell id="Fr2vjpCtk58J113UkBB1-7" value="" style="group" vertex="1" connectable="0" parent="1">
          <mxGeometry x="140" y="60" width="230" height="200" as="geometry" />
        </mxCell>
        <mxCell id="Fr2vjpCtk58J113UkBB1-1" value="" style="shape=folder;fontStyle=1;tabWidth=80;tabHeight=30;tabPosition=left;html=1;boundedLbl=1;whiteSpace=wrap;" vertex="1" parent="Fr2vjpCtk58J113UkBB1-7">
          <mxGeometry width="230" height="200" as="geometry" />
        </mxCell>
        <mxCell id="Fr2vjpCtk58J113UkBB1-2" value="Web Browser" style="shape=module;align=left;spacingLeft=20;align=center;verticalAlign=middle;whiteSpace=wrap;html=1;" vertex="1" parent="Fr2vjpCtk58J113UkBB1-7">
          <mxGeometry x="90" y="140" width="120" height="50" as="geometry" />
        </mxCell>
        <mxCell id="Fr2vjpCtk58J113UkBB1-3" value="" style="fontColor=#0066CC;verticalAlign=top;verticalLabelPosition=bottom;labelPosition=center;align=center;html=1;outlineConnect=0;fillColor=#CCCCCC;strokeColor=#6881B3;gradientColor=none;gradientDirection=north;strokeWidth=2;shape=mxgraph.networks.pc;" vertex="1" parent="Fr2vjpCtk58J113UkBB1-7">
          <mxGeometry x="30" y="50" width="80" height="70" as="geometry" />
        </mxCell>
        <mxCell id="Fr2vjpCtk58J113UkBB1-6" value="Client" style="text;html=1;align=center;verticalAlign=middle;whiteSpace=wrap;rounded=0;" vertex="1" parent="Fr2vjpCtk58J113UkBB1-7">
          <mxGeometry x="10" width="60" height="30" as="geometry" />
        </mxCell>
        <mxCell id="Fr2vjpCtk58J113UkBB1-21" value="" style="group;align=left;" vertex="1" connectable="0" parent="1">
          <mxGeometry x="500" y="120" width="370" height="200" as="geometry" />
        </mxCell>
        <mxCell id="Fr2vjpCtk58J113UkBB1-9" value="" style="shape=folder;fontStyle=1;tabWidth=120;tabHeight=30;tabPosition=left;html=1;boundedLbl=1;whiteSpace=wrap;" vertex="1" parent="Fr2vjpCtk58J113UkBB1-21">
          <mxGeometry x="-10" width="360" height="200" as="geometry" />
        </mxCell>
        <mxCell id="Fr2vjpCtk58J113UkBB1-12" value="Web Server" style="text;html=1;align=center;verticalAlign=middle;whiteSpace=wrap;rounded=0;" vertex="1" parent="Fr2vjpCtk58J113UkBB1-21">
          <mxGeometry width="100" height="21.428571428571427" as="geometry" />
        </mxCell>
        <mxCell id="Fr2vjpCtk58J113UkBB1-25" value="Interface&lt;br&gt;Index.html&lt;div&gt;Create.html&lt;/div&gt;" style="shape=module;align=left;spacingLeft=20;align=center;verticalAlign=middle;whiteSpace=wrap;html=1;" vertex="1" parent="Fr2vjpCtk58J113UkBB1-21">
          <mxGeometry x="30" y="50.00142857142857" width="130" height="42.857142857142854" as="geometry" />
        </mxCell>
        <mxCell id="Fr2vjpCtk58J113UkBB1-26" value="Database Interface" style="shape=module;align=left;spacingLeft=20;align=center;verticalAlign=middle;whiteSpace=wrap;html=1;" vertex="1" parent="Fr2vjpCtk58J113UkBB1-21">
          <mxGeometry x="34" y="114.28181818181817" width="140" height="49.35454545454545" as="geometry" />
        </mxCell>
        <mxCell id="Fr2vjpCtk58J113UkBB1-30" value="Reserva" style="shape=module;align=left;spacingLeft=20;align=center;verticalAlign=middle;whiteSpace=wrap;html=1;" vertex="1" parent="Fr2vjpCtk58J113UkBB1-21">
          <mxGeometry x="240" y="114.28181818181817" width="120" height="49.35454545454545" as="geometry" />
        </mxCell>
        <mxCell id="Fr2vjpCtk58J113UkBB1-33" value="" style="endArrow=classic;html=1;rounded=0;" edge="1" parent="Fr2vjpCtk58J113UkBB1-21" source="Fr2vjpCtk58J113UkBB1-26" target="Fr2vjpCtk58J113UkBB1-30">
          <mxGeometry width="50" height="50" relative="1" as="geometry">
            <mxPoint x="250" y="220" as="sourcePoint" />
            <mxPoint x="30" y="366" as="targetPoint" />
          </mxGeometry>
        </mxCell>
        <mxCell id="Fr2vjpCtk58J113UkBB1-34" value="" style="endArrow=classic;html=1;rounded=0;" edge="1" parent="Fr2vjpCtk58J113UkBB1-21" source="Fr2vjpCtk58J113UkBB1-25" target="Fr2vjpCtk58J113UkBB1-26">
          <mxGeometry width="50" height="50" relative="1" as="geometry">
            <mxPoint x="164" y="149" as="sourcePoint" />
            <mxPoint x="230" y="149" as="targetPoint" />
          </mxGeometry>
        </mxCell>
        <mxCell id="Fr2vjpCtk58J113UkBB1-22" value="" style="group" vertex="1" connectable="0" parent="1">
          <mxGeometry x="170" y="380" width="240" height="200" as="geometry" />
        </mxCell>
        <mxCell id="Fr2vjpCtk58J113UkBB1-23" value="" style="shape=folder;fontStyle=1;tabWidth=140;tabHeight=30;tabPosition=left;html=1;boundedLbl=1;whiteSpace=wrap;" vertex="1" parent="Fr2vjpCtk58J113UkBB1-22">
          <mxGeometry x="10" width="230" height="120" as="geometry" />
        </mxCell>
        <mxCell id="Fr2vjpCtk58J113UkBB1-24" value="Database server" style="text;html=1;align=center;verticalAlign=middle;whiteSpace=wrap;rounded=0;" vertex="1" parent="Fr2vjpCtk58J113UkBB1-22">
          <mxGeometry x="30" width="100" height="30" as="geometry" />
        </mxCell>
        <mxCell id="Fr2vjpCtk58J113UkBB1-27" value="SQLite&lt;div&gt;MsSQL&lt;/div&gt;" style="shape=module;align=left;spacingLeft=20;align=center;verticalAlign=middle;whiteSpace=wrap;html=1;" vertex="1" parent="Fr2vjpCtk58J113UkBB1-22">
          <mxGeometry x="80" y="50" width="120" height="50" as="geometry" />
        </mxCell>
        <mxCell id="Fr2vjpCtk58J113UkBB1-31" value="" style="endArrow=classic;html=1;rounded=0;" edge="1" parent="1" source="Fr2vjpCtk58J113UkBB1-2" target="Fr2vjpCtk58J113UkBB1-25">
          <mxGeometry width="50" height="50" relative="1" as="geometry">
            <mxPoint x="360" y="320" as="sourcePoint" />
            <mxPoint x="410" y="270" as="targetPoint" />
          </mxGeometry>
        </mxCell>
        <mxCell id="Fr2vjpCtk58J113UkBB1-32" value="" style="endArrow=classic;html=1;rounded=0;" edge="1" parent="1" source="Fr2vjpCtk58J113UkBB1-27" target="Fr2vjpCtk58J113UkBB1-26">
          <mxGeometry width="50" height="50" relative="1" as="geometry">
            <mxPoint x="290" y="263" as="sourcePoint" />
            <mxPoint x="660" y="410" as="targetPoint" />
          </mxGeometry>
        </mxCell>
      </root>
    </mxGraphModel>
  </diagram>
</mxfile>
